<svg width="349" height="63" viewBox="0 0 349 63" fill="none" xmlns="http://www.w3.org/2000/svg">
<g clip-path="url(#clip0_560_1746)">
<rect x="0.257324" y="20.75" width="348" height="18" rx="9" fill="white"/>
<rect x="122.875" y="38.75" width="122.618" height="18" transform="rotate(-180 122.875 38.75)" fill="#CE1313"/>
<rect x="245.493" y="38.75" width="122.618" height="18" transform="rotate(-180 245.493 38.75)" fill="#79839E"/>
<rect x="372.257" y="38.75" width="126.764" height="18" transform="rotate(-180 372.257 38.75)" fill="#7B808F"/>
<line x1="122.835" y1="20.7543" x2="122.679" y2="38.7543" stroke="url(#paint0_linear_560_1746)"/>
<line x1="244.835" y1="20.7543" x2="244.679" y2="38.7543" stroke="url(#paint1_linear_560_1746)"/>
</g>
<g filter="url(#filter0_d_560_1746)">
<g filter="url(#filter1_d_560_1746)">
<rect x="105.554" y="15.5" width="28.5" height="28.5" rx="14.25" fill="#22325C"/>
<rect x="106.054" y="16" width="27.5" height="27.5" rx="13.75" stroke="#D9D9D9"/>
</g>
</g>
<path d="M123.157 22.9243C122.471 22.935 121.799 23.1266 121.211 23.4799C120.622 23.8332 120.137 24.3355 119.804 24.9363C119.472 24.3355 118.987 23.8332 118.398 23.4799C117.809 23.1266 117.138 22.935 116.451 22.9243C115.357 22.9719 114.325 23.4506 113.583 24.256C112.84 25.0614 112.447 26.1279 112.488 27.2226C112.488 31.3532 119.168 36.1239 119.452 36.3263L119.804 36.5757L120.157 36.3263C120.441 36.1251 127.12 31.3532 127.12 27.2226C127.162 26.1279 126.768 25.0614 126.026 24.256C125.283 23.4506 124.252 22.9719 123.157 22.9243Z" fill="#CE1313"/>
<defs>
<filter id="filter0_d_560_1746" x="90.5542" y="4.5" width="58.5" height="58.5" filterUnits="userSpaceOnUse" color-interpolation-filters="sRGB">
<feFlood flood-opacity="0" result="BackgroundImageFix"/>
<feColorMatrix in="SourceAlpha" type="matrix" values="0 0 0 0 0 0 0 0 0 0 0 0 0 0 0 0 0 0 127 0" result="hardAlpha"/>
<feOffset dy="4"/>
<feGaussianBlur stdDeviation="7.5"/>
<feComposite in2="hardAlpha" operator="out"/>
<feColorMatrix type="matrix" values="0 0 0 0 0 0 0 0 0 0 0 0 0 0 0 0 0 0 0.05 0"/>
<feBlend mode="normal" in2="BackgroundImageFix" result="effect1_dropShadow_560_1746"/>
<feBlend mode="normal" in="SourceGraphic" in2="effect1_dropShadow_560_1746" result="shape"/>
</filter>
<filter id="filter1_d_560_1746" x="88.6653" y="0.722222" width="62.2778" height="62.2778" filterUnits="userSpaceOnUse" color-interpolation-filters="sRGB">
<feFlood flood-opacity="0" result="BackgroundImageFix"/>
<feColorMatrix in="SourceAlpha" type="matrix" values="0 0 0 0 0 0 0 0 0 0 0 0 0 0 0 0 0 0 127 0" result="hardAlpha"/>
<feMorphology radius="1.05556" operator="dilate" in="SourceAlpha" result="effect1_dropShadow_560_1746"/>
<feOffset dy="2.11111"/>
<feGaussianBlur stdDeviation="7.91667"/>
<feComposite in2="hardAlpha" operator="out"/>
<feColorMatrix type="matrix" values="0 0 0 0 0 0 0 0 0 0 0 0 0 0 0 0 0 0 0.15 0"/>
<feBlend mode="normal" in2="BackgroundImageFix" result="effect1_dropShadow_560_1746"/>
<feBlend mode="normal" in="SourceGraphic" in2="effect1_dropShadow_560_1746" result="shape"/>
</filter>
<linearGradient id="paint0_linear_560_1746" x1="122.446" y1="29.7516" x2="121.06" y2="29.7396" gradientUnits="userSpaceOnUse">
<stop stop-color="#131B63"/>
<stop offset="1" stop-color="#481162"/>
</linearGradient>
<linearGradient id="paint1_linear_560_1746" x1="244.446" y1="29.7516" x2="243.06" y2="29.7396" gradientUnits="userSpaceOnUse">
<stop stop-color="#131B63"/>
<stop offset="1" stop-color="#481162"/>
</linearGradient>
<clipPath id="clip0_560_1746">
<rect x="0.257324" y="20.75" width="348" height="18" rx="9" fill="white"/>
</clipPath>
</defs>
</svg>
